<svg xmlns="http://www.w3.org/2000/svg" width="9" height="15" fill="none" viewBox="0 0 9 15"><path fill="#3B5998" d="M8.24936 0.003121L6.30422 0C4.11892 0 2.70668 1.44892 2.70668 3.69152V5.39356H0.750924C0.581923 5.39356 0.445068 5.53057 0.445068 5.69957V8.16563C0.445068 8.33463 0.582079 8.47149 0.750924 8.47149H2.70668V14.6941C2.70668 14.8631 2.84353 15 3.01253 15H5.56424C5.73324 15 5.87009 14.863 5.87009 14.6941V8.47149H8.15683C8.32583 8.47149 8.46268 8.33463 8.46268 8.16563L8.46362 5.69957C8.46362 5.61843 8.43132 5.54071 8.37405 5.48329C8.31678 5.42586 8.23875 5.39356 8.15761 5.39356H5.87009V3.95072C5.87009 3.25723 6.03535 2.90518 6.93871 2.90518L8.24905 2.90472C8.4179 2.90472 8.55475 2.7677 8.55475 2.59886V0.308979C8.55475 0.140289 8.41805 0.0034331 8.24936 0.003121Z"/></svg>