<svg width="15" height="15" viewBox="0 0 15 15" fill="none" xmlns="http://www.w3.org/2000/svg">
<g clip-path="url(#clip0)">
<path d="M7.50002 15C11.6422 15 15 11.6422 15 7.50002C15 3.35787 11.6422 0 7.50002 0C3.35787 0 0 3.35787 0 7.50002C0 11.6422 3.35787 15 7.50002 15Z" fill="#FFC10E"/>
<path d="M5.76448 3.48071C5.31717 3.48071 4.90163 3.69885 4.65185 4.06409L4.60032 4.12958L4.56585 4.08564C4.31892 3.70704 3.90266 3.48084 3.45075 3.48084C2.67966 3.48084 2.12012 4.04054 2.12012 4.81139C2.12012 5.94959 4.18077 7.62725 4.33104 7.74803C4.40197 7.81588 4.49483 7.8532 4.59336 7.8532C4.69188 7.8532 4.78475 7.81601 4.85567 7.74793C5.00642 7.62617 7.09502 5.92225 7.09502 4.81139C7.09502 4.04042 6.53544 3.48071 5.76448 3.48071Z" fill="#ED3533"/>
<path d="M11.606 3.48071C11.1587 3.48071 10.7432 3.69885 10.4934 4.06409L10.4419 4.12958L10.4074 4.08564C10.1605 3.70704 9.74421 3.48084 9.29231 3.48084C8.52121 3.48084 7.96167 4.04054 7.96167 4.81139C7.96167 5.94959 10.0223 7.62725 10.1726 7.74803C10.2435 7.81588 10.3364 7.8532 10.4349 7.8532C10.5333 7.8532 10.6262 7.81601 10.6972 7.74793C10.8479 7.6263 12.9364 5.92225 12.9364 4.81139C12.9366 4.04042 12.377 3.48071 11.606 3.48071Z" fill="#ED3533"/>
<path d="M10.864 10.0287C8.98777 11.938 5.96895 11.9231 4.10833 10.0003C3.84247 9.72556 3.42418 10.1447 3.68969 10.4189C5.77129 12.5702 9.18555 12.5817 11.2827 10.4474C11.5504 10.175 11.1319 9.7561 10.864 10.0287Z" fill="#333333"/>
</g>
<defs>
<clipPath id="clip0">
<rect width="15" height="15" fill="white"/>
</clipPath>
</defs>
</svg>
