<svg width="20" height="20" viewBox="0 0 20 20" fill="none" xmlns="http://www.w3.org/2000/svg">
<path d="M19.6576 3.57727C19.4756 1.87164 18.1285 0.524292 16.4227 0.342407C12.1451 -0.114136 7.85492 -0.114136 3.57742 0.342407C1.87164 0.524445 0.524445 1.87164 0.342407 3.57727C-0.114136 7.85477 -0.114136 12.1451 0.342407 16.4226C0.524445 18.1284 1.87164 19.4756 3.57727 19.6576C7.85477 20.1141 12.1451 20.1141 16.4227 19.6576C18.1285 19.4756 19.4756 18.1284 19.6576 16.4226C20.1141 12.1451 20.1141 7.85492 19.6576 3.57727Z" fill="url(#paint0_radial)"/>
<path d="M18.5698 4.30058C18.4084 2.78706 17.213 1.59154 15.6993 1.42995C11.9035 1.02498 8.09648 1.02498 4.3007 1.42995C2.78719 1.59154 1.59166 2.78706 1.43007 4.30058C1.0251 8.09636 1.0251 11.9034 1.43007 15.6991C1.59166 17.2127 2.78719 18.4082 4.3007 18.5697C8.09648 18.9748 11.9035 18.9748 15.6992 18.5697C17.2128 18.4082 18.4084 17.2127 18.5698 15.6991C18.9749 11.9034 18.9749 8.09636 18.5698 4.30058Z" fill="url(#paint1_linear)"/>
<path d="M0.299683 16.0081C0.313416 16.1463 0.327606 16.2845 0.342407 16.4228C0.524445 18.1284 1.87164 19.4756 3.57742 19.6577C7.85492 20.1142 12.1452 20.1142 16.4227 19.6577C18.1285 19.4756 19.4756 18.1284 19.6576 16.4228C19.6724 16.2845 19.6866 16.1463 19.7005 16.0081H0.299683Z" fill="url(#paint2_linear)"/>
<path d="M19.6576 16.4226C19.903 14.1242 20.0162 11.8221 19.9979 9.52033L15.4264 4.94879C14.8552 4.29679 14.021 3.88983 13.0408 3.85459C11.025 3.78195 9.00272 3.78562 6.98657 3.85489C5.31207 3.91257 4.14111 5.03806 3.84082 6.69226C3.78787 6.98432 3.75613 7.28018 3.71448 7.57437V12.4239C3.73752 12.5811 3.77139 12.7375 3.78192 12.8956C3.84906 13.9017 4.26257 14.7636 4.92465 15.3466L9.57675 19.9985C11.8598 20.0146 14.1429 19.901 16.4228 19.6577C18.1285 19.4756 19.4756 18.1284 19.6576 16.4226Z" fill="url(#paint3_linear)"/>
<path d="M19.6576 16.4226C19.4757 18.1281 18.1282 19.4756 16.4227 19.6575C14.1432 19.9007 11.8596 20.0144 9.57684 19.9984L4.93176 15.3533C5.47025 15.8246 6.17215 16.1116 6.98666 16.1423C9.00235 16.218 11.0251 16.216 13.0407 16.1434C14.8639 16.0775 16.1831 14.7281 16.2401 12.905C16.3008 10.9693 16.3008 9.0285 16.2401 7.09277C16.2141 6.25171 15.9189 5.51166 15.4294 4.95166L19.998 9.52029C20.016 11.8218 19.9028 14.1242 19.6576 16.4226Z" fill="url(#paint4_linear)"/>
<path d="M12.36 7.83438C11.7744 7.19672 10.9341 6.79663 10.0001 6.79663C8.23096 6.79663 6.79663 8.23096 6.79663 10.0001C6.79663 10.9341 7.19672 11.7744 7.83438 12.36L15.246 19.7716C15.6383 19.7375 16.0306 19.6995 16.4226 19.6577C18.1284 19.4756 19.4756 18.1284 19.6577 16.4226C19.6995 16.0306 19.7375 15.6383 19.7716 15.246L12.36 7.83438Z" fill="url(#paint5_linear)"/>
<path d="M19.9612 12.1544L13.9962 6.18964C13.8571 6.00699 13.6378 5.88843 13.3905 5.88843C12.9696 5.88843 12.6283 6.22961 12.6283 6.6506C12.6283 6.89795 12.7469 7.11722 12.9295 7.25638L19.8546 14.1816C19.9016 13.5061 19.9371 12.8303 19.9612 12.1544Z" fill="url(#paint6_linear)"/>
<path d="M3.71448 7.57437C3.75613 7.28018 3.78787 6.98432 3.84082 6.69226C4.14096 5.03806 5.31207 3.91257 6.98657 3.85489C9.00272 3.78562 11.025 3.78195 13.0408 3.85459C14.8633 3.9202 16.1832 5.26969 16.2401 7.09281C16.3007 9.02869 16.3007 10.9693 16.2401 12.9052C16.1832 14.7283 14.8638 16.0776 13.041 16.1434C11.0251 16.2162 9.00241 16.218 6.98672 16.1423C5.16391 16.0738 3.90384 14.7213 3.78192 12.8954C3.77139 12.7375 3.73752 12.5809 3.71448 12.4238C3.71448 10.8073 3.71448 9.19074 3.71448 7.57437ZM10.0017 15.0629C10.9243 15.0629 11.8477 15.0905 12.769 15.0565C14.2136 15.003 15.1021 14.1408 15.1358 12.6977C15.1776 10.8994 15.1776 9.09873 15.1358 7.30033C15.1021 5.85746 14.213 4.97519 12.769 4.94452C10.9363 4.90576 9.10159 4.90607 7.26886 4.94452C5.83591 4.97458 4.94479 5.83899 4.90588 7.26599C4.85645 9.08698 4.85645 10.9112 4.90588 12.7322C4.94479 14.159 5.83591 15.0034 7.26901 15.0565C8.17874 15.0904 9.09076 15.0629 10.0017 15.0629Z" fill="url(#paint7_linear)"/>
<path d="M3.71448 7.57437C3.75613 7.28018 3.78787 6.98432 3.84082 6.69226C4.14096 5.03806 5.31207 3.91257 6.98657 3.85489C9.00272 3.78562 11.025 3.78195 13.0408 3.85459C14.8633 3.9202 16.1832 5.26969 16.2401 7.09281C16.3007 9.02869 16.3007 10.9693 16.2401 12.9052C16.1832 14.7283 14.8638 16.0776 13.041 16.1434C11.0251 16.2162 9.00241 16.218 6.98672 16.1423C5.16391 16.0738 3.90384 14.7213 3.78192 12.8954C3.77139 12.7375 3.73752 12.5809 3.71448 12.4238C3.71448 10.8073 3.71448 9.19074 3.71448 7.57437ZM10.0017 15.0629C10.9243 15.0629 11.8477 15.0905 12.769 15.0565C14.2136 15.003 15.1021 14.1408 15.1358 12.6977C15.1776 10.8994 15.1776 9.09873 15.1358 7.30033C15.1021 5.85746 14.213 4.97519 12.769 4.94452C10.9363 4.90576 9.10159 4.90607 7.26886 4.94452C5.83591 4.97458 4.94479 5.83899 4.90588 7.26599C4.85645 9.08698 4.85645 10.9112 4.90588 12.7322C4.94479 14.159 5.83591 15.0034 7.26901 15.0565C8.17874 15.0904 9.09076 15.0629 10.0017 15.0629Z" fill="white"/>
<path d="M10.0001 6.79688C8.23096 6.79688 6.79663 8.23105 6.79663 10.0002C6.79663 11.7694 8.23096 13.2036 10.0001 13.2036C11.7693 13.2036 13.2035 11.7694 13.2035 10.0002C13.2035 8.23105 11.7693 6.79688 10.0001 6.79688ZM10.0001 12.1007C8.83994 12.1007 7.89954 11.1603 7.89954 10.0002C7.89954 8.84003 8.83994 7.89963 10.0001 7.89963C11.1602 7.89963 12.1006 8.84003 12.1006 10.0002C12.1006 11.1603 11.1602 12.1007 10.0001 12.1007Z" fill="white"/>
<path d="M14.1526 6.6506C14.1526 7.07144 13.8114 7.41263 13.3906 7.41263C12.9698 7.41263 12.6284 7.07144 12.6284 6.6506C12.6284 6.22961 12.9698 5.88843 13.3906 5.88843C13.8114 5.88843 14.1526 6.22961 14.1526 6.6506Z" fill="white"/>
<defs>
<radialGradient id="paint0_radial" cx="0" cy="0" r="1" gradientUnits="userSpaceOnUse" gradientTransform="translate(4.09989 17.4784) scale(22.0565)">
<stop stop-color="#FAE100"/>
<stop offset="0.0544" stop-color="#FADC04"/>
<stop offset="0.1167" stop-color="#FBCE0E"/>
<stop offset="0.1829" stop-color="#FCB720"/>
<stop offset="0.2514" stop-color="#FE9838"/>
<stop offset="0.3054" stop-color="#FF7950"/>
<stop offset="0.4922" stop-color="#FF1C74"/>
<stop offset="1" stop-color="#6C1CD1"/>
</radialGradient>
<linearGradient id="paint1_linear" x1="7.67082" y1="8.68972" x2="-26.2115" y2="-10.3691" gradientUnits="userSpaceOnUse">
<stop stop-color="#A1B5D8" stop-opacity="0"/>
<stop offset="0.3094" stop-color="#90A2BD" stop-opacity="0.309804"/>
<stop offset="0.7554" stop-color="#7C8B9C" stop-opacity="0.756863"/>
<stop offset="1" stop-color="#748290"/>
</linearGradient>
<linearGradient id="paint2_linear" x1="10" y1="17.655" x2="10" y2="20.7725" gradientUnits="userSpaceOnUse">
<stop stop-color="#FAE100" stop-opacity="0"/>
<stop offset="0.3068" stop-color="#FCA800" stop-opacity="0.305882"/>
<stop offset="0.6275" stop-color="#FE7300" stop-opacity="0.627451"/>
<stop offset="0.8685" stop-color="#FF5200" stop-opacity="0.866667"/>
<stop offset="1" stop-color="#FF4500"/>
</linearGradient>
<linearGradient id="paint3_linear" x1="8.86223" y1="8.83397" x2="3.91256" y2="3.88429" gradientUnits="userSpaceOnUse">
<stop stop-color="#833AB4" stop-opacity="0"/>
<stop offset="1" stop-color="#833AB4"/>
</linearGradient>
<linearGradient id="paint4_linear" x1="13.707" y1="18.2924" x2="11.2365" y2="6.64588" gradientUnits="userSpaceOnUse">
<stop stop-color="#833AB4" stop-opacity="0"/>
<stop offset="1" stop-color="#833AB4"/>
</linearGradient>
<linearGradient id="paint5_linear" x1="14.6471" y1="14.6471" x2="4.72432" y2="4.72431" gradientUnits="userSpaceOnUse">
<stop stop-color="#833AB4" stop-opacity="0"/>
<stop offset="1" stop-color="#833AB4"/>
</linearGradient>
<linearGradient id="paint6_linear" x1="15.383" y1="8.64315" x2="12.1018" y2="5.36187" gradientUnits="userSpaceOnUse">
<stop stop-color="#833AB4" stop-opacity="0"/>
<stop offset="1" stop-color="#833AB4"/>
</linearGradient>
<linearGradient id="paint7_linear" x1="13.9711" y1="6.05669" x2="5.8806" y2="14.1471" gradientUnits="userSpaceOnUse">
<stop stop-color="#833AB4"/>
<stop offset="0.0922" stop-color="#9C3495"/>
<stop offset="0.2927" stop-color="#DC2546"/>
<stop offset="0.392" stop-color="#FD1D1D"/>
<stop offset="0.5589" stop-color="#FC6831"/>
<stop offset="0.6887" stop-color="#FC9B40"/>
<stop offset="0.7521" stop-color="#FCAF45"/>
<stop offset="0.7806" stop-color="#FDB750"/>
<stop offset="0.8656" stop-color="#FECB6A"/>
<stop offset="0.9415" stop-color="#FFD87A"/>
<stop offset="1" stop-color="#FFDC80"/>
</linearGradient>
</defs>
</svg>
