<svg xmlns="http://www.w3.org/2000/svg" width="15" height="15" fill="none" viewBox="0 0 15 15"><path fill="#fff" d="M10.1098 0C10.1098 0 11.4349 3.24187 5.75557 5.41943C2.66955 6.60232 0.299303 9.63419 3.12937 14.3177C3.36375 12.2242 4.36874 7.60847 8.69014 6.55519C8.69014 6.55519 4.66804 8.05916 4.31274 14.867C6.37946 15.1572 11.2265 15.3522 12.6656 11.1459C14.5659 5.58841 10.1098 0 10.1098 0Z"/><path fill="#fff" d="M4.31462 14.8387C8.7021 13.0877 11.8945 8.98569 12.3351 4.0889C11.4382 1.66944 10.1098 0 10.1098 0C10.1098 0 11.4349 3.24187 5.75557 5.41943C2.66955 6.60232 0.299303 9.63419 3.12937 14.3177C3.36375 12.2242 4.36874 7.60847 8.69014 6.55519C8.69014 6.55519 4.67976 8.05544 4.31462 14.8387Z"/><path fill="#fff" d="M2.69155 5.52749C2.91808 5.52749 3.10172 5.34385 3.10172 5.11732C3.10172 4.89079 2.91808 4.70715 2.69155 4.70715C2.46502 4.70715 2.28139 4.89079 2.28139 5.11732C2.28139 5.34385 2.46502 5.52749 2.69155 5.52749Z"/><path fill="#fff" d="M3.98059 5.00011C4.14239 5.00011 4.27356 4.86895 4.27356 4.70715C4.27356 4.54535 4.14239 4.41418 3.98059 4.41418C3.81879 4.41418 3.68762 4.54535 3.68762 4.70715C3.68762 4.86895 3.81879 5.00011 3.98059 5.00011Z"/><path fill="#fff" d="M3.71694 2.65641C4.12143 2.65641 4.44934 2.3285 4.44934 1.924C4.44934 1.5195 4.12143 1.19159 3.71694 1.19159C3.31244 1.19159 2.98453 1.5195 2.98453 1.924C2.98453 2.3285 3.31244 2.65641 3.71694 2.65641Z"/><path fill="#fff" d="M5.97279 3.8283C6.10224 3.8283 6.20717 3.72337 6.20717 3.59393C6.20717 3.46449 6.10224 3.35956 5.97279 3.35956C5.84335 3.35956 5.73842 3.46449 5.73842 3.59393C5.73842 3.72337 5.84335 3.8283 5.97279 3.8283Z"/><path fill="#fff" d="M7.9359 2.94939C8.30804 2.94939 8.60971 2.64771 8.60971 2.27557C8.60971 1.90343 8.30804 1.60175 7.9359 1.60175C7.56376 1.60175 7.26208 1.90343 7.26208 2.27557C7.26208 2.64771 7.56376 2.94939 7.9359 2.94939Z"/></svg>