<svg width="25" height="25" viewBox="0 0 25 25" fill="none" xmlns="http://www.w3.org/2000/svg">
<path d="M14.4899 5.23583C15.5132 5.41638 15.8109 6.05959 15.4614 6.90983C15.4993 6.81712 15.5553 6.73045 15.6085 6.63951C15.6498 6.56873 15.6897 6.49545 15.7171 6.41628C15.8676 5.97865 15.8402 5.55971 15.604 5.15592C15.3935 4.79466 14.9891 4.54509 14.8403 4.14793C14.7146 3.81507 14.786 3.8186 14.8025 3.44204C14.8066 3.40555 14.8104 3.36832 14.8146 3.3305C14.8219 3.25471 14.8324 3.17834 14.833 3.09859C14.8355 3.01927 14.8415 2.93878 14.8349 2.85652C14.8312 2.77456 14.83 2.6923 14.8171 2.60886C14.8122 2.56722 14.8074 2.52572 14.8019 2.48364C14.7938 2.44258 14.7854 2.40079 14.7775 2.35915C14.7639 2.27571 14.7383 2.19375 14.7158 2.11208C14.7061 2.07043 14.6889 2.031 14.6749 1.99053C14.6604 1.95109 14.6481 1.91018 14.6317 1.87104C14.5671 1.71447 14.4908 1.56438 14.4046 1.42399C14.3844 1.38838 14.3613 1.35424 14.3382 1.32099C14.3153 1.28729 14.2929 1.25315 14.2697 1.22136C14.2205 1.15794 14.1747 1.09334 14.1241 1.03478C14.027 0.913522 13.9215 0.806542 13.8204 0.708391C13.7186 0.610093 13.6191 0.521655 13.5227 0.444841C13.4262 0.367881 13.336 0.300926 13.254 0.243537C13.1729 0.18497 13.0992 0.138617 13.0389 0.100652C12.9772 0.0635698 12.9284 0.0348751 12.8948 0.0166282C12.8814 0.00927059 12.8711 0.00382596 12.863 0C12.871 0.00441457 12.8813 0.0104478 12.8947 0.0179526C12.9276 0.0361995 12.9759 0.0653356 13.0368 0.103301C13.0967 0.142443 13.1698 0.189826 13.2496 0.249129C13.3314 0.307254 13.4187 0.377299 13.5108 0.458379C13.6035 0.538725 13.6994 0.631136 13.7951 0.732966C13.8884 0.837297 13.984 0.950162 14.0709 1.07524C14.16 1.19856 14.2374 1.336 14.3063 1.47785C14.3228 1.51331 14.34 1.54937 14.3565 1.58586C14.3716 1.6225 14.3843 1.66032 14.3984 1.69755C14.4284 1.77127 14.4467 1.84941 14.4699 1.9249C14.507 2.07926 14.5307 2.23554 14.535 2.38916C14.5363 2.42757 14.5369 2.46554 14.5381 2.50409C14.5354 2.54176 14.5331 2.57958 14.5306 2.61681C14.5282 2.69186 14.5164 2.76514 14.505 2.83651C14.4958 2.90788 14.4751 2.97674 14.4592 3.04385C14.4451 3.11109 14.4195 3.17511 14.3974 3.23735C14.3865 3.26855 14.3756 3.29901 14.3652 3.32873C14.3516 3.35802 14.3388 3.38686 14.326 3.41482C14.1546 3.73811 13.8332 3.6869 13.6147 3.70412C13.4099 3.72001 13.2134 3.6273 13.0133 3.59773C12.2696 3.48986 11.4277 3.96752 11.0548 4.60263C11.0854 4.5654 11.6124 3.92602 12.3799 4.01814C12.5196 4.03536 12.6678 4.07671 12.8229 4.15058C13.849 4.64015 13.4671 5.05527 14.4899 5.23583Z" fill="#109D59"/>
<path d="M14.825 24.958C14.907 24.8922 14.9201 24.7719 14.8544 24.6903L14.8496 24.6843C14.8496 24.6843 14.8021 24.625 14.713 24.5141C14.6681 24.4592 14.6134 24.3909 14.5488 24.3108C14.4877 24.2284 14.417 24.1338 14.3376 24.0284C14.257 23.9241 14.1759 23.802 14.0857 23.6728C13.9936 23.5442 13.9038 23.3982 13.8055 23.2459C13.7562 23.17 13.7087 23.089 13.6599 23.0054C13.6116 22.9225 13.5605 22.8377 13.5104 22.7498C13.4151 22.5705 13.3108 22.3861 13.2165 22.1867C13.0218 21.7909 12.8333 21.3547 12.6722 20.8835C12.5106 20.4132 12.3732 19.9104 12.2706 19.3864C12.1688 18.8618 12.1034 18.3166 12.0755 17.7624C12.0485 17.2085 12.0559 16.6471 12.1042 16.0888C12.1515 15.5314 12.2298 14.9781 12.3408 14.4388C12.4506 13.9001 12.5849 13.3754 12.741 12.8758C13.049 11.8747 13.4291 10.9712 13.7939 10.2226C14.1589 9.47347 14.5089 8.87941 14.7585 8.48505C14.8842 8.28801 14.9842 8.14174 15.05 8.04962C15.0825 8.00504 15.1075 7.97149 15.1208 7.95486C15.1239 7.95177 15.1293 7.94573 15.1293 7.94573H15.1318L15.1355 7.94147C15.1368 7.9397 15.1373 7.93882 15.1373 7.93882L15.1489 7.92366C15.2594 7.76621 15.3543 7.59419 15.4295 7.40819C15.5313 7.15626 15.5893 6.89698 15.6083 6.63946C15.5552 6.7304 15.4991 6.81693 15.4613 6.90978C15.8109 6.05954 15.5131 5.41633 14.4898 5.23578C13.4668 5.05537 13.8488 4.64025 12.8233 4.15038C12.6682 4.07666 12.52 4.03516 12.3804 4.01794C11.6539 4.22528 11.0266 4.75385 10.7223 5.50845C10.7223 5.50845 10.7217 5.50963 10.7211 5.51213C10.7199 5.51404 10.7192 5.51698 10.7143 5.52626C10.7108 5.53464 10.7058 5.54509 10.6999 5.55789C10.6955 5.56761 10.6906 5.57864 10.6852 5.59144C10.6644 5.64015 10.6382 5.70431 10.6051 5.78745C10.5417 5.95094 10.4558 6.18152 10.3582 6.47127C10.1643 7.05016 9.91954 7.86715 9.70426 8.85852C9.48883 9.8493 9.30224 11.0164 9.2266 12.2773C9.18687 12.9068 9.17892 13.5602 9.20394 14.2221C9.22837 14.8841 9.29488 15.5557 9.39789 16.2186C9.60464 17.547 9.99268 18.8421 10.5112 19.9697C10.7705 20.5339 11.0598 21.056 11.3624 21.5289C11.6642 22.0017 11.982 22.4233 12.2902 22.7943C12.442 22.9818 12.5995 23.1507 12.7447 23.3129C12.819 23.3928 12.8942 23.4685 12.9656 23.543C13.037 23.6173 13.1058 23.6887 13.1772 23.7552C13.3168 23.8894 13.445 24.0156 13.5714 24.125C13.6958 24.2359 13.8075 24.3391 13.9155 24.4252C14.021 24.513 14.1156 24.591 14.1973 24.6587C14.282 24.7239 14.3535 24.7788 14.4115 24.824C14.5273 24.913 14.5897 24.9605 14.5897 24.9605C14.6573 25.0129 14.755 25.0141 14.825 24.958Z" fill="white"/>
<path d="M14.8025 3.44204C14.8066 3.40555 14.8104 3.36832 14.8146 3.3305C14.8219 3.25471 14.8324 3.17834 14.833 3.09859C14.8355 3.01927 14.8415 2.93878 14.8349 2.85652C14.8312 2.77456 14.83 2.6923 14.8171 2.60886C14.8122 2.56722 14.8074 2.52572 14.8019 2.48364C14.7938 2.44258 14.7854 2.40079 14.7775 2.35915C14.7639 2.27571 14.7383 2.19375 14.7158 2.11208C14.7061 2.07043 14.6889 2.031 14.6749 1.99053C14.6604 1.95109 14.6481 1.91018 14.6317 1.87104C14.5671 1.71447 14.4908 1.56438 14.4046 1.42399C14.3844 1.38838 14.3613 1.35424 14.3382 1.32099C14.3153 1.28729 14.2929 1.25315 14.2697 1.22136C14.2205 1.15794 14.1747 1.09334 14.1241 1.03478C14.027 0.913522 13.9215 0.806542 13.8204 0.708391C13.7186 0.610093 13.6191 0.521655 13.5227 0.444841C13.4262 0.367881 13.336 0.300926 13.254 0.243537C13.1729 0.18497 13.0992 0.138617 13.0389 0.100652C12.9772 0.0635698 12.9284 0.0348751 12.8948 0.0166282C12.8814 0.00927059 12.8711 0.00382596 12.863 0C12.871 0.00441457 12.8813 0.0104478 12.8947 0.0179526C12.9276 0.0361995 12.9759 0.0653356 13.0368 0.103301C13.0967 0.142443 13.1698 0.189826 13.2496 0.249129C13.3314 0.307254 13.4187 0.377299 13.5108 0.458379C13.6035 0.538725 13.6994 0.631136 13.7951 0.732966C13.8884 0.837297 13.984 0.950162 14.0709 1.07524C14.16 1.19856 14.2374 1.336 14.3063 1.47785C14.3228 1.51331 14.34 1.54937 14.3565 1.58586C14.3716 1.6225 14.3843 1.66032 14.3984 1.69755C14.4284 1.77127 14.4467 1.84941 14.4699 1.9249C14.507 2.07926 14.5307 2.23554 14.535 2.38916C14.5363 2.42757 14.5369 2.46554 14.5381 2.50409C14.5354 2.54176 14.5331 2.57958 14.5306 2.61681C14.5282 2.69186 14.5164 2.76514 14.505 2.83651C14.4958 2.90788 14.4751 2.97674 14.4592 3.04385C14.4451 3.11109 14.4195 3.17511 14.3974 3.23735C14.3865 3.26855 14.3756 3.29901 14.3652 3.32873C14.3516 3.35802 14.3388 3.38686 14.326 3.41482C14.1546 3.73811 13.8332 3.6869 13.6147 3.70412C13.4099 3.72001 13.2134 3.6273 13.0133 3.59773C12.2696 3.48986 11.4277 3.96752 11.0548 4.60263C11.0854 4.5654 11.6124 3.92602 12.3799 4.01814C12.5196 4.03536 12.6678 4.07671 12.8229 4.15058C13.8484 4.64045 13.4664 5.05556 14.4894 5.23597C14.5581 5.24819 14.623 5.26261 14.6851 5.27894C14.9563 5.17829 15.2331 5.09368 15.518 5.02775C15.2974 4.73139 14.9703 4.49668 14.8397 4.14822C14.7147 3.81507 14.786 3.8186 14.8025 3.44204Z" fill="#0E854C"/>
<path d="M12.8234 4.15038C12.6683 4.07666 12.5202 4.03516 12.3805 4.01794C11.654 4.22528 11.0267 4.75385 10.7224 5.50845C10.7224 5.50845 10.7218 5.50963 10.7212 5.51213C10.72 5.51404 10.7193 5.51699 10.7144 5.52626C10.7109 5.53464 10.7059 5.54509 10.7 5.55789C10.6956 5.56761 10.6908 5.57864 10.6853 5.59144C10.6646 5.64015 10.6384 5.70431 10.6053 5.78745C10.5418 5.95094 10.4559 6.18153 10.3583 6.47127C10.1644 7.05017 9.91967 7.86716 9.70439 8.85852C9.66819 9.0251 9.63332 9.1983 9.59903 9.37444C10.409 8.13865 11.4945 7.05281 12.8192 6.23538C13.4307 5.84616 14.0426 5.51743 14.6859 5.27875C14.6238 5.26256 14.5589 5.24799 14.4902 5.23578C13.4671 5.05522 13.8489 4.6401 12.8234 4.15038Z" fill="white"/>
</svg>
