<svg width="15" height="15" viewBox="0 0 15 15" fill="none" xmlns="http://www.w3.org/2000/svg">
<path d="M6.98005 0.663196C7.0781 0.465155 7.28003 0.3396 7.50072 0.3396C7.72141 0.3396 7.92366 0.465155 8.02139 0.663196L9.88886 4.44766C9.97332 4.61884 10.1371 4.7376 10.3264 4.76511L14.5027 5.37185C14.7218 5.40356 14.903 5.55695 14.9713 5.76696C15.0396 5.97698 14.9826 6.20802 14.8244 6.36206L11.8026 9.30808C11.6657 9.4414 11.6033 9.63362 11.6353 9.82195L12.3485 13.9818C12.3854 14.1999 12.2964 14.4199 12.1171 14.55C11.9382 14.6795 11.7017 14.6966 11.5056 14.5944L7.76995 12.6301C7.60103 12.5411 7.39879 12.5411 7.22954 12.6301L3.49394 14.594C3.29849 14.6966 3.0613 14.6798 2.88235 14.55C2.7034 14.4203 2.61408 14.1999 2.6513 13.9818L3.36451 9.82195C3.39687 9.63362 3.33409 9.4414 3.19721 9.30808L0.17546 6.36206C0.0172216 6.2077 -0.0397314 5.97698 0.0285475 5.76696C0.0968264 5.55695 0.278364 5.40356 0.497439 5.37185L4.67442 4.76511C4.86341 4.7376 5.02715 4.61884 5.1116 4.44734L6.98005 0.663196Z" fill="#FFC10E"/>
</svg>
