<svg width="8" height="10" viewBox="0 0 8 10" fill="none" xmlns="http://www.w3.org/2000/svg">
<path d="M4.00005 4.89066C5.11188 4.89066 6.01328 3.79586 6.01328 2.44534C6.01328 1.0948 5.71734 0 4.00005 0C2.28276 0 1.98676 1.0948 1.98676 2.44534C1.98676 3.79586 2.88816 4.89066 4.00005 4.89066Z" fill="#176DEE"/>
<path d="M0.197418 8.62438C0.197075 8.54202 0.196731 8.60118 0.197418 8.62438V8.62438Z" fill="#176DEE"/>
<path d="M7.80249 8.68868C7.80356 8.66614 7.80286 8.5323 7.80249 8.68868V8.68868Z" fill="#176DEE"/>
<path d="M7.79816 8.52563C7.76087 6.173 7.45362 5.50263 5.10239 5.07829C5.10239 5.07829 4.77142 5.50003 3.99999 5.50003C3.22856 5.50003 2.89753 5.07829 2.89753 5.07829C0.571959 5.498 0.246016 6.15843 0.203159 8.4492C0.199645 8.63626 0.198016 8.64608 0.197388 8.62437C0.197531 8.66506 0.197702 8.74031 0.197702 8.87154C0.197702 8.87154 0.757473 10 3.99999 10C7.24244 10 7.80227 8.87154 7.80227 8.87154C7.80227 8.78723 7.80233 8.7286 7.80242 8.68871C7.80179 8.70214 7.80053 8.67611 7.79816 8.52563Z" fill="#176DEE"/>
</svg>
