<svg width="20" height="20" viewBox="0 0 20 20" fill="none" xmlns="http://www.w3.org/2000/svg">
<path d="M10 20C15.5228 20 20 15.5228 20 10C20 4.47715 15.5228 0 10 0C4.47715 0 0 4.47715 0 10C0 15.5228 4.47715 20 10 20Z" fill="#4D76A1"/>
<path fill-rule="evenodd" clip-rule="evenodd" d="M9.62225 14.3858H10.4071C10.4071 14.3858 10.6442 14.3598 10.7653 14.2293C10.8767 14.1095 10.8731 13.8845 10.8731 13.8845C10.8731 13.8845 10.8578 12.8314 11.3466 12.6763C11.8284 12.5235 12.4471 13.6942 13.1029 14.1443C13.5989 14.4849 13.9757 14.4102 13.9757 14.4102L15.7292 14.3858C15.7292 14.3858 16.6466 14.3293 16.2116 13.6081C16.176 13.5491 15.9583 13.0745 14.9078 12.0995C13.8083 11.0789 13.9556 11.244 15.28 9.47869C16.0867 8.4036 16.4091 7.74725 16.3084 7.46614C16.2123 7.19839 15.6191 7.26916 15.6191 7.26916L13.6447 7.28146C13.6447 7.28146 13.4983 7.2615 13.3898 7.32638C13.2837 7.39002 13.2154 7.53833 13.2154 7.53833C13.2154 7.53833 12.9029 8.37027 12.4862 9.07778C11.607 10.5707 11.2555 10.6495 11.1118 10.5568C10.7776 10.3407 10.861 9.68885 10.861 9.22574C10.861 7.77898 11.0804 7.17575 10.4337 7.0196C10.2191 6.96772 10.0611 6.9335 9.51227 6.92797C8.80778 6.92066 8.21151 6.93011 7.87388 7.09554C7.64928 7.20552 7.47601 7.45063 7.58154 7.46471C7.71202 7.48218 8.00758 7.54439 8.16427 7.75777C8.36659 8.033 8.35946 8.65121 8.35946 8.65121C8.35946 8.65121 8.47569 10.3543 8.08797 10.5659C7.82183 10.711 7.45676 10.4147 6.67295 9.06031C6.27133 8.36653 5.96811 7.59965 5.96811 7.59965C5.96811 7.59965 5.90964 7.45633 5.80536 7.37968C5.6788 7.28681 5.50196 7.25722 5.50196 7.25722L3.62578 7.26952C3.62578 7.26952 3.34413 7.27736 3.24074 7.39982C3.14876 7.50874 3.23343 7.73406 3.23343 7.73406C3.23343 7.73406 4.70229 11.1705 6.36545 12.9023C7.89046 14.4901 9.62225 14.3858 9.62225 14.3858Z" fill="white"/>
</svg>
